<?xml version="1.0" encoding="UTF-8" standalone="no"?>
<svg width="103px" height="30px" viewBox="0 0 1825 563" version="1.1" xmlns="http://www.w3.org/2000/svg" xmlns:xlink="http://www.w3.org/1999/xlink" xmlns:sketch="http://www.bohemiancoding.com/sketch/ns">
    <!-- Generator: Sketch 3.3.2 (12043) - http://www.bohemiancoding.com/sketch -->
    <title>Slice 1</title>
    <desc>Created with Sketch.</desc>
    <defs></defs>
    <g id="prudio-logo" stroke="none" stroke-width="1" fill="none" fill-rule="evenodd" sketch:type="MSPage">
        <path class="prudio-logo-path" d="M522.961659,59.8808596 L519.371815,353.957031 C519.371815,353.957031 517.828847,374.375 533.086659,399.429688 C541.124567,412.628649 570.237878,447.619316 594.215576,477.28418 C604.389404,489.871094 632.413818,522.249023 624.61499,527.641602 C619.232831,531.363149 594.215576,525.797852 573.375776,519.625119 C559.211979,515.429814 111.727268,406.617188 94.8932851,401.761719 C78.0593022,396.90625 60.4421158,394.816406 48.6862563,381.539063 C43.4883124,375.668383 37.8754888,361.954835 37.4479748,353.957031 C34.227272,293.705078 30.5593031,175.039062 28.3522719,113.261719 C26.8805108,72.0654309 28.1676572,54.1059546 70.0456332,51.484375 C206.170631,42.9628906 490.906972,27 490.906972,27 C490.906972,27 508.440175,27 516.692128,37.7011721 C524.944081,48.4023443 522.961659,59.8808596 522.961659,59.8808596 Z" fill="black" sketch:type="MSShapeGroup"></path>
        <path class="prudio-logo-text" d="M805.76,413.92 C805.76,418.08 809.28,421.6 813.44,421.6 C817.92,421.6 821.44,418.08 821.44,413.92 L821.44,324.32 C834.88,342.88 856.64,355.04 880.96,355.04 C923.2,355.04 956.8,319.52 956.8,276.96 C956.8,234.08 923.2,199.2 880.96,199.2 C856.64,199.2 834.88,211.36 821.44,229.6 L821.44,206.88 C821.44,202.72 817.92,199.2 813.44,199.2 C809.28,199.2 805.76,202.72 805.76,206.88 L805.76,273.76 L805.76,276.96 L805.76,280.16 L805.76,413.92 Z M821.44,274.4 C822.72,241.12 849.28,214.88 880.96,214.88 C914.24,214.88 941.12,242.4 941.12,276.96 C941.12,311.52 914.24,339.36 880.96,339.68 C848.64,339.36 821.44,311.52 821.44,276.96 L821.44,274.4 Z M1016.96,348.32 C1016.96,352.8 1020.48,356 1024.96,356 C1028.8,356 1032.32,352.8 1032.32,348.32 L1032.32,279.52 C1032.32,278.88 1032.32,278.24 1032.96,276.96 C1035.2,270.56 1041.28,254.56 1051.84,240.48 C1062.72,226.4 1076.8,214.88 1097.28,214.88 C1101.44,214.88 1104.96,211.36 1104.96,207.2 C1104.96,202.72 1101.44,199.52 1097.28,199.52 C1067.2,199.52 1046.4,219.36 1034.56,237.92 C1033.6,239.2 1032.96,240.48 1032.32,241.76 L1032.32,207.2 C1032.32,202.72 1028.8,199.52 1024.96,199.52 C1020.48,199.52 1016.96,202.72 1016.96,207.2 L1016.96,348.32 Z M1154.24,292 C1154.24,327.2 1182.4,356 1217.6,356 C1253.44,356 1281.92,327.2 1281.92,292 L1281.92,206.56 C1281.92,202.08 1278.4,198.88 1273.92,198.88 C1270.08,198.88 1266.24,202.08 1266.24,206.56 L1266.24,292 C1266.24,318.88 1244.48,340.32 1217.6,340.64 C1191.04,340.32 1169.6,318.88 1169.6,292 L1169.6,206.56 C1169.6,202.08 1166.08,198.88 1161.92,198.88 C1157.76,198.88 1154.24,202.08 1154.24,206.56 L1154.24,292 Z M1479.04,348.32 C1479.04,352.48 1482.56,356 1487.04,356 C1491.2,356 1494.72,352.48 1494.72,348.32 L1494.72,277.92 L1494.72,274.72 L1494.72,139.68 C1494.72,135.52 1491.2,132 1487.04,132 C1482.56,132 1479.04,135.52 1479.04,139.68 L1479.04,229.92 C1465.28,211.36 1443.52,199.2 1418.88,199.2 C1376.64,199.2 1343.04,234.4 1343.04,277.92 C1343.04,320.8 1376.64,356 1418.88,356 C1443.52,356 1465.28,344.16 1479.04,325.6 L1479.04,348.32 Z M1418.88,340.32 C1385.92,340.32 1358.72,312.48 1358.72,277.92 C1358.72,243.04 1385.92,214.88 1418.88,214.88 C1451.2,214.88 1477.76,241.76 1479.04,275.36 L1479.04,280.48 C1477.76,313.76 1451.2,340.32 1418.88,340.32 L1418.88,340.32 Z M1565.12,348.32 C1565.12,352.48 1568.64,356 1572.8,356 C1577.28,356 1580.8,352.48 1580.8,348.32 L1580.8,206.88 C1580.8,202.4 1577.28,199.2 1572.8,199.2 C1568.64,199.2 1565.12,202.4 1565.12,206.88 L1565.12,348.32 Z M1565.12,163.04 C1565.12,167.52 1568.64,171.36 1572.8,171.36 C1577.28,171.36 1580.8,167.52 1580.8,163.04 L1580.8,155.68 C1580.8,151.52 1577.28,148 1572.8,148 C1568.64,148 1565.12,151.52 1565.12,155.68 L1565.12,163.04 Z M1647.36,277.6 C1647.36,320.16 1680.64,356 1721.6,356 C1762.88,356 1795.84,320.16 1795.84,277.6 C1795.84,235.04 1762.88,199.2 1721.6,199.2 C1680.64,199.2 1647.36,235.04 1647.36,277.6 L1647.36,277.6 Z M1662.72,277.6 C1662.72,242.72 1689.6,214.24 1721.6,214.24 C1753.6,214.24 1780.48,242.72 1780.48,277.6 C1780.48,312.48 1753.6,340.64 1721.6,340.64 C1689.6,340.64 1662.72,312.48 1662.72,277.6 L1662.72,277.6 Z" fill="black" sketch:type="MSShapeGroup"></path>
    </g>
</svg>
